<?xml version="1.0" standalone="no"?>
<!DOCTYPE svg PUBLIC "-//W3C//DTD SVG 20010904//EN"
 "http://www.w3.org/TR/2001/REC-SVG-20010904/DTD/svg10.dtd">
<svg version="1.0" xmlns="http://www.w3.org/2000/svg"
 width="920.000000pt" height="900.000000pt" viewBox="0 0 920.000000 900.000000"
 preserveAspectRatio="xMidYMid meet">

<g transform="translate(0.000000,900.000000) scale(0.100000,-0.100000)"
fill="rgb(255,145,0)" stroke="none">
<path d="M5380 8369 c-189 -5 -279 -11 -370 -24 -891 -127 -1606 -452 -2317
-1053 -585 -495 -1064 -1089 -1380 -1710 -46 -90 -83 -158 -83 -151 0 7 16 66
36 132 114 386 357 863 611 1200 23 31 43 60 43 63 0 3 -38 -35 -83 -83 -382
-402 -668 -793 -916 -1251 -218 -400 -351 -790 -411 -1198 -103 -697 19 -1381
347 -1953 50 -87 182 -276 248 -356 933 -1127 2606 -1374 4425 -653 151 60
399 173 535 243 l100 53 120 -44 c280 -101 528 -165 1270 -330 33 -7 102 -24
153 -37 50 -13 92 -23 92 -22 0 1 -11 23 -24 51 -13 27 -61 128 -106 224 -304
645 -480 1021 -480 1026 0 2 34 43 77 91 545 625 975 1350 1187 2000 251 771
247 1485 -13 2144 -77 197 -172 375 -315 594 -215 327 -498 584 -858 779 -49
26 -88 46 -88 43 0 -2 37 -33 83 -69 182 -145 397 -385 523 -584 98 -155 249
-488 278 -614 7 -27 -1 -12 -66 125 -130 277 -369 587 -608 789 -203 172 -408
293 -640 379 -262 97 -685 180 -990 192 -80 4 -149 7 -155 8 -5 1 -107 -1
-225 -4z m540 -393 c285 -35 509 -98 745 -210 377 -180 634 -413 861 -781 251
-408 367 -835 367 -1350 0 -227 -16 -388 -59 -610 -152 -789 -565 -1562 -1128
-2114 l-116 -114 37 -61 c20 -34 98 -160 174 -282 177 -285 267 -440 329 -567
27 -56 50 -105 50 -108 0 -4 -60 18 -132 48 -327 135 -526 217 -698 288 -322
133 -302 132 -533 27 -693 -318 -1246 -458 -1837 -467 -555 -9 -997 85 -1445
305 -606 297 -1031 799 -1234 1456 -122 396 -129 854 -19 1309 206 858 812
1738 1613 2340 673 506 1487 828 2260 894 72 6 150 13 175 15 87 8 476 -5 590
-18z"/>
<path d="M4104 6928 c3 -90 11 -368 16 -618 6 -250 12 -497 15 -547 2 -51 2
-93 -1 -93 -2 0 -254 171 -560 380 -305 209 -557 380 -559 380 -2 0 -19 -28
-38 -62 -40 -73 -379 -680 -423 -759 -2 -4 33 -29 79 -56 45 -27 186 -113 312
-190 127 -77 350 -213 498 -302 147 -90 267 -166 267 -170 0 -5 -164 -106
-890 -544 -146 -88 -266 -161 -268 -163 -2 -1 37 -73 86 -161 49 -87 153 -273
232 -413 78 -140 143 -256 144 -257 1 -1 92 57 201 130 110 73 270 178 355
233 85 56 248 163 362 237 l208 136 -5 -102 c-3 -56 -10 -295 -15 -532 -5
-236 -13 -503 -16 -592 l-6 -163 462 0 462 0 -6 308 c-3 169 -8 354 -11 412
-9 195 -17 660 -11 660 3 0 180 -115 393 -256 213 -141 462 -305 552 -364
l164 -108 180 317 c98 174 203 358 233 409 30 51 54 96 54 100 0 4 -134 88
-298 186 -163 99 -427 258 -585 354 l-288 174 103 63 c57 34 288 174 513 310
226 136 435 263 465 281 105 62 102 45 28 175 -118 205 -355 623 -371 654 -9
17 -20 36 -25 43 -7 11 -137 -74 -553 -360 -299 -206 -550 -378 -558 -382 -11
-7 -12 36 -7 270 3 154 8 333 11 399 3 66 8 261 11 433 l7 312 -463 0 -462 0
6 -162z"/>
<path d="M6040 1410 c0 -5 11 -10 25 -10 24 0 25 -2 25 -70 0 -56 3 -70 15
-70 12 0 15 14 15 70 0 68 1 70 25 70 14 0 25 5 25 10 0 6 -28 10 -65 10 -37
0 -65 -4 -65 -10z"/>
<path d="M6190 1340 c0 -94 18 -108 22 -17 l3 62 20 -62 c11 -35 26 -63 32
-63 7 0 21 27 30 60 10 33 21 60 24 60 3 0 3 -27 1 -60 -4 -50 -2 -60 12 -60
13 0 16 13 16 80 0 74 -2 80 -20 80 -11 0 -22 -6 -24 -12 -2 -7 -12 -35 -22
-63 l-18 -50 -20 63 c-15 46 -25 62 -38 62 -16 0 -18 -10 -18 -80z"/>
</g>
</svg>
