<?xml version="1.0" standalone="no"?>
<!DOCTYPE svg PUBLIC "-//W3C//DTD SVG 20010904//EN"
 "http://www.w3.org/TR/2001/REC-SVG-20010904/DTD/svg10.dtd">
<svg version="1.0" xmlns="http://www.w3.org/2000/svg"
 width="920.000000pt" height="920.000000pt" viewBox="0 0 920.000000 920.000000"
 preserveAspectRatio="xMidYMid meet">

<g transform="translate(0.000000,920.000000) scale(0.100000,-0.100000)"
fill="#000000" stroke="none">
<path d="M1418 8031 c-75 -24 -118 -52 -172 -112 -93 -103 -107 -203 -87 -585
47 -862 247 -1667 606 -2434 575 -1229 1548 -2271 2735 -2930 933 -518 2017
-809 3030 -814 216 -1 227 0 285 23 82 33 173 124 206 206 l24 60 3 740 c2
719 2 742 -18 805 -35 112 -115 198 -228 244 -38 15 -88 20 -252 27 -445 17
-815 78 -1185 195 -159 50 -241 50 -353 -1 -49 -22 -120 -89 -503 -472 l-446
-445 -79 43 c-1035 560 -1825 1344 -2379 2359 l-67 123 445 446 c281 282 452
461 465 486 58 119 59 199 3 385 -123 415 -173 724 -190 1171 -7 200 -8 207
-38 270 -36 78 -78 127 -141 167 -99 63 -83 62 -881 61 -672 0 -730 -1 -783
-18z"/>
<path d="M4600 7475 l0 -575 385 0 385 0 0 -190 0 -190 -385 0 -385 0 0 -195
0 -195 575 0 575 0 0 575 0 575 -382 2 -383 3 0 190 0 190 383 3 382 2 0 190
0 190 -575 0 -575 0 0 -575z"/>
<path d="M6132 7093 l3 -958 193 -3 192 -2 0 960 0 960 -195 0 -195 0 2 -957z"/>
<path d="M6900 7090 l0 -960 190 0 190 0 0 385 0 385 385 0 385 0 0 575 0 575
-575 0 -575 0 0 -960z m765 385 l0 -190 -192 -3 -193 -2 0 188 c0 104 3 192 7
196 4 3 90 5 192 4 l186 -3 0 -190z"/>
</g>
</svg>
